<mxfile host="65bd71144e">
    <diagram id="yxfAynj5KHn1HwAmodsz" name="Page-1">
        <mxGraphModel dx="2092" dy="790" grid="1" gridSize="10" guides="1" tooltips="1" connect="1" arrows="1" fold="1" page="1" pageScale="1" pageWidth="827" pageHeight="1169" math="0" shadow="0">
            <root>
                <mxCell id="0"/>
                <mxCell id="1" parent="0"/>
                <mxCell id="2" value="&lt;font style=&quot;font-size: 18px&quot;&gt;Container&lt;/font&gt;" style="whiteSpace=wrap;html=1;" parent="1" vertex="1">
                    <mxGeometry x="-1040" y="40" width="120" height="40" as="geometry"/>
                </mxCell>
                <mxCell id="51" value="MainPage" style="swimlane;startSize=20;" parent="1" vertex="1">
                    <mxGeometry x="-840" y="120" width="160" height="95" as="geometry">
                        <mxRectangle x="-800" y="120" width="130" height="23" as="alternateBounds"/>
                    </mxGeometry>
                </mxCell>
                <mxCell id="52" value="" style="swimlane;fontStyle=0;childLayout=stackLayout;horizontal=1;startSize=0;horizontalStack=0;resizeParent=1;resizeParentMax=0;resizeLast=0;collapsible=1;marginBottom=0;" parent="51" vertex="1">
                    <mxGeometry y="20" width="160" height="25" as="geometry">
                        <mxRectangle y="20" width="40" height="26" as="alternateBounds"/>
                    </mxGeometry>
                </mxCell>
                <mxCell id="57" value="album: list&lt;Album&gt;" style="text;strokeColor=none;fillColor=none;align=left;verticalAlign=top;spacingLeft=4;spacingRight=4;overflow=hidden;rotatable=0;points=[[0,0.5],[1,0.5]];portConstraint=eastwest;" parent="52" vertex="1">
                    <mxGeometry width="160" height="25" as="geometry"/>
                </mxCell>
                <mxCell id="62" value="" style="swimlane;fontStyle=0;childLayout=stackLayout;horizontal=1;startSize=0;horizontalStack=0;resizeParent=1;resizeParentMax=0;resizeLast=0;collapsible=1;marginBottom=0;" parent="51" vertex="1">
                    <mxGeometry y="45" width="160" height="50" as="geometry">
                        <mxRectangle y="20" width="40" height="26" as="alternateBounds"/>
                    </mxGeometry>
                </mxCell>
                <mxCell id="64" value="+ onAlbumTitleClicked" style="text;strokeColor=none;fillColor=none;align=left;verticalAlign=top;spacingLeft=4;spacingRight=4;overflow=hidden;rotatable=0;points=[[0,0.5],[1,0.5]];portConstraint=eastwest;" parent="62" vertex="1">
                    <mxGeometry width="160" height="25" as="geometry"/>
                </mxCell>
                <mxCell id="136" value="+ onAlbumPlayClicked" style="text;strokeColor=none;fillColor=none;align=left;verticalAlign=top;spacingLeft=4;spacingRight=4;overflow=hidden;rotatable=0;points=[[0,0.5],[1,0.5]];portConstraint=eastwest;" parent="62" vertex="1">
                    <mxGeometry y="25" width="160" height="25" as="geometry"/>
                </mxCell>
                <mxCell id="69" value="SearchResultPage" style="swimlane;startSize=20;" parent="1" vertex="1">
                    <mxGeometry x="-1040" y="400" width="160" height="170" as="geometry">
                        <mxRectangle x="-800" y="120" width="130" height="23" as="alternateBounds"/>
                    </mxGeometry>
                </mxCell>
                <mxCell id="70" value="" style="swimlane;fontStyle=0;childLayout=stackLayout;horizontal=1;startSize=0;horizontalStack=0;resizeParent=1;resizeParentMax=0;resizeLast=0;collapsible=1;marginBottom=0;" parent="69" vertex="1">
                    <mxGeometry y="20" width="160" height="50" as="geometry">
                        <mxRectangle y="20" width="40" height="26" as="alternateBounds"/>
                    </mxGeometry>
                </mxCell>
                <mxCell id="71" value="resultLine: list&lt;ResultLine&gt;" style="text;strokeColor=none;fillColor=none;align=left;verticalAlign=top;spacingLeft=4;spacingRight=4;overflow=hidden;rotatable=0;points=[[0,0.5],[1,0.5]];portConstraint=eastwest;" parent="70" vertex="1">
                    <mxGeometry width="160" height="25" as="geometry"/>
                </mxCell>
                <mxCell id="72" value="addSong: button" style="text;strokeColor=none;fillColor=none;align=left;verticalAlign=top;spacingLeft=4;spacingRight=4;overflow=hidden;rotatable=0;points=[[0,0.5],[1,0.5]];portConstraint=eastwest;" parent="70" vertex="1">
                    <mxGeometry y="25" width="160" height="25" as="geometry"/>
                </mxCell>
                <mxCell id="75" value="" style="swimlane;fontStyle=0;childLayout=stackLayout;horizontal=1;startSize=0;horizontalStack=0;resizeParent=1;resizeParentMax=0;resizeLast=0;collapsible=1;marginBottom=0;" parent="69" vertex="1">
                    <mxGeometry y="70" width="160" height="100" as="geometry">
                        <mxRectangle y="20" width="40" height="26" as="alternateBounds"/>
                    </mxGeometry>
                </mxCell>
                <mxCell id="76" value="+ onResultLineClicked" style="text;strokeColor=none;fillColor=none;align=left;verticalAlign=top;spacingLeft=4;spacingRight=4;overflow=hidden;rotatable=0;points=[[0,0.5],[1,0.5]];portConstraint=eastwest;" parent="75" vertex="1">
                    <mxGeometry width="160" height="25" as="geometry"/>
                </mxCell>
                <mxCell id="77" value="+ onResultAuthorClicked" style="text;strokeColor=none;fillColor=none;align=left;verticalAlign=top;spacingLeft=4;spacingRight=4;overflow=hidden;rotatable=0;points=[[0,0.5],[1,0.5]];portConstraint=eastwest;" parent="75" vertex="1">
                    <mxGeometry y="25" width="160" height="25" as="geometry"/>
                </mxCell>
                <mxCell id="98" value="+ onResultPlayClicked" style="text;strokeColor=none;fillColor=none;align=left;verticalAlign=top;spacingLeft=4;spacingRight=4;overflow=hidden;rotatable=0;points=[[0,0.5],[1,0.5]];portConstraint=eastwest;" parent="75" vertex="1">
                    <mxGeometry y="50" width="160" height="25" as="geometry"/>
                </mxCell>
                <mxCell id="99" value="+ onAddSongClicked" style="text;strokeColor=none;fillColor=none;align=left;verticalAlign=top;spacingLeft=4;spacingRight=4;overflow=hidden;rotatable=0;points=[[0,0.5],[1,0.5]];portConstraint=eastwest;" parent="75" vertex="1">
                    <mxGeometry y="75" width="160" height="25" as="geometry"/>
                </mxCell>
                <mxCell id="103" value="SignInPage" style="swimlane;startSize=20;" parent="1" vertex="1">
                    <mxGeometry x="-640" y="120" width="160" height="95" as="geometry">
                        <mxRectangle x="-800" y="120" width="130" height="23" as="alternateBounds"/>
                    </mxGeometry>
                </mxCell>
                <mxCell id="104" value="" style="swimlane;fontStyle=0;childLayout=stackLayout;horizontal=1;startSize=0;horizontalStack=0;resizeParent=1;resizeParentMax=0;resizeLast=0;collapsible=1;marginBottom=0;" parent="103" vertex="1">
                    <mxGeometry y="20" width="160" height="50" as="geometry">
                        <mxRectangle y="20" width="40" height="26" as="alternateBounds"/>
                    </mxGeometry>
                </mxCell>
                <mxCell id="105" value="email: input" style="text;strokeColor=none;fillColor=none;align=left;verticalAlign=top;spacingLeft=4;spacingRight=4;overflow=hidden;rotatable=0;points=[[0,0.5],[1,0.5]];portConstraint=eastwest;" parent="104" vertex="1">
                    <mxGeometry width="160" height="25" as="geometry"/>
                </mxCell>
                <mxCell id="106" value="password: input" style="text;strokeColor=none;fillColor=none;align=left;verticalAlign=top;spacingLeft=4;spacingRight=4;overflow=hidden;rotatable=0;points=[[0,0.5],[1,0.5]];portConstraint=eastwest;" parent="104" vertex="1">
                    <mxGeometry y="25" width="160" height="25" as="geometry"/>
                </mxCell>
                <mxCell id="109" value="" style="swimlane;fontStyle=0;childLayout=stackLayout;horizontal=1;startSize=0;horizontalStack=0;resizeParent=1;resizeParentMax=0;resizeLast=0;collapsible=1;marginBottom=0;" parent="103" vertex="1">
                    <mxGeometry y="70" width="160" height="25" as="geometry">
                        <mxRectangle y="20" width="40" height="26" as="alternateBounds"/>
                    </mxGeometry>
                </mxCell>
                <mxCell id="110" value="+ onSignInClicked" style="text;strokeColor=none;fillColor=none;align=left;verticalAlign=top;spacingLeft=4;spacingRight=4;overflow=hidden;rotatable=0;points=[[0,0.5],[1,0.5]];portConstraint=eastwest;" parent="109" vertex="1">
                    <mxGeometry width="160" height="25" as="geometry"/>
                </mxCell>
                <mxCell id="113" value="SignUpPage" style="swimlane;startSize=20;" parent="1" vertex="1">
                    <mxGeometry x="-440" y="120" width="160" height="120" as="geometry">
                        <mxRectangle x="-800" y="120" width="130" height="23" as="alternateBounds"/>
                    </mxGeometry>
                </mxCell>
                <mxCell id="114" value="" style="swimlane;fontStyle=0;childLayout=stackLayout;horizontal=1;startSize=0;horizontalStack=0;resizeParent=1;resizeParentMax=0;resizeLast=0;collapsible=1;marginBottom=0;" parent="113" vertex="1">
                    <mxGeometry y="20" width="160" height="75" as="geometry">
                        <mxRectangle y="20" width="40" height="26" as="alternateBounds"/>
                    </mxGeometry>
                </mxCell>
                <mxCell id="115" value="email: input" style="text;strokeColor=none;fillColor=none;align=left;verticalAlign=top;spacingLeft=4;spacingRight=4;overflow=hidden;rotatable=0;points=[[0,0.5],[1,0.5]];portConstraint=eastwest;" parent="114" vertex="1">
                    <mxGeometry width="160" height="25" as="geometry"/>
                </mxCell>
                <mxCell id="116" value="password: input" style="text;strokeColor=none;fillColor=none;align=left;verticalAlign=top;spacingLeft=4;spacingRight=4;overflow=hidden;rotatable=0;points=[[0,0.5],[1,0.5]];portConstraint=eastwest;" parent="114" vertex="1">
                    <mxGeometry y="25" width="160" height="25" as="geometry"/>
                </mxCell>
                <mxCell id="126" value="passwordConfirm: input" style="text;strokeColor=none;fillColor=none;align=left;verticalAlign=top;spacingLeft=4;spacingRight=4;overflow=hidden;rotatable=0;points=[[0,0.5],[1,0.5]];portConstraint=eastwest;" parent="114" vertex="1">
                    <mxGeometry y="50" width="160" height="25" as="geometry"/>
                </mxCell>
                <mxCell id="117" value="" style="swimlane;fontStyle=0;childLayout=stackLayout;horizontal=1;startSize=0;horizontalStack=0;resizeParent=1;resizeParentMax=0;resizeLast=0;collapsible=1;marginBottom=0;" parent="113" vertex="1">
                    <mxGeometry y="95" width="160" height="25" as="geometry">
                        <mxRectangle y="20" width="40" height="26" as="alternateBounds"/>
                    </mxGeometry>
                </mxCell>
                <mxCell id="118" value="+ onSignUpClicked" style="text;strokeColor=none;fillColor=none;align=left;verticalAlign=top;spacingLeft=4;spacingRight=4;overflow=hidden;rotatable=0;points=[[0,0.5],[1,0.5]];portConstraint=eastwest;" parent="117" vertex="1">
                    <mxGeometry width="160" height="25" as="geometry"/>
                </mxCell>
                <mxCell id="153" value="SongPage" style="swimlane;startSize=20;" parent="1" vertex="1">
                    <mxGeometry x="-800" y="400" width="200" height="500" as="geometry">
                        <mxRectangle x="-800" y="120" width="130" height="23" as="alternateBounds"/>
                    </mxGeometry>
                </mxCell>
                <mxCell id="154" value="" style="swimlane;fontStyle=0;childLayout=stackLayout;horizontal=1;startSize=0;horizontalStack=0;resizeParent=1;resizeParentMax=0;resizeLast=0;collapsible=1;marginBottom=0;" parent="153" vertex="1">
                    <mxGeometry y="20" width="200" height="250" as="geometry">
                        <mxRectangle y="20" width="40" height="26" as="alternateBounds"/>
                    </mxGeometry>
                </mxCell>
                <mxCell id="155" value="category: text" style="text;strokeColor=none;fillColor=none;align=left;verticalAlign=top;spacingLeft=4;spacingRight=4;overflow=hidden;rotatable=0;points=[[0,0.5],[1,0.5]];portConstraint=eastwest;" parent="154" vertex="1">
                    <mxGeometry width="200" height="25" as="geometry"/>
                </mxCell>
                <mxCell id="156" value="title: text" style="text;strokeColor=none;fillColor=none;align=left;verticalAlign=top;spacingLeft=4;spacingRight=4;overflow=hidden;rotatable=0;points=[[0,0.5],[1,0.5]];portConstraint=eastwest;" parent="154" vertex="1">
                    <mxGeometry y="25" width="200" height="25" as="geometry"/>
                </mxCell>
                <mxCell id="162" value="singer: text" style="text;strokeColor=none;fillColor=none;align=left;verticalAlign=top;spacingLeft=4;spacingRight=4;overflow=hidden;rotatable=0;points=[[0,0.5],[1,0.5]];portConstraint=eastwest;" parent="154" vertex="1">
                    <mxGeometry y="50" width="200" height="25" as="geometry"/>
                </mxCell>
                <mxCell id="164" value="thumbnail: img" style="text;strokeColor=none;fillColor=none;align=left;verticalAlign=top;spacingLeft=4;spacingRight=4;overflow=hidden;rotatable=0;points=[[0,0.5],[1,0.5]];portConstraint=eastwest;" parent="154" vertex="1">
                    <mxGeometry y="75" width="200" height="25" as="geometry"/>
                </mxCell>
                <mxCell id="165" value="refLink: button" style="text;strokeColor=none;fillColor=none;align=left;verticalAlign=top;spacingLeft=4;spacingRight=4;overflow=hidden;rotatable=0;points=[[0,0.5],[1,0.5]];portConstraint=eastwest;" parent="154" vertex="1">
                    <mxGeometry y="100" width="200" height="25" as="geometry"/>
                </mxCell>
                <mxCell id="166" value="topCombinations: TopCombinations" style="text;strokeColor=none;fillColor=none;align=left;verticalAlign=top;spacingLeft=4;spacingRight=4;overflow=hidden;rotatable=0;points=[[0,0.5],[1,0.5]];portConstraint=eastwest;" parent="154" vertex="1">
                    <mxGeometry y="125" width="200" height="25" as="geometry"/>
                </mxCell>
                <mxCell id="168" value="coverSelector: CoverSelecter" style="text;strokeColor=none;fillColor=none;align=left;verticalAlign=top;spacingLeft=4;spacingRight=4;overflow=hidden;rotatable=0;points=[[0,0.5],[1,0.5]];portConstraint=eastwest;" parent="154" vertex="1">
                    <mxGeometry y="150" width="200" height="25" as="geometry"/>
                </mxCell>
                <mxCell id="170" value="record: button" style="text;strokeColor=none;fillColor=none;align=left;verticalAlign=top;spacingLeft=4;spacingRight=4;overflow=hidden;rotatable=0;points=[[0,0.5],[1,0.5]];portConstraint=eastwest;" parent="154" vertex="1">
                    <mxGeometry y="175" width="200" height="25" as="geometry"/>
                </mxCell>
                <mxCell id="171" value="listen: button" style="text;strokeColor=none;fillColor=none;align=left;verticalAlign=top;spacingLeft=4;spacingRight=4;overflow=hidden;rotatable=0;points=[[0,0.5],[1,0.5]];portConstraint=eastwest;" parent="154" vertex="1">
                    <mxGeometry y="200" width="200" height="25" as="geometry"/>
                </mxCell>
                <mxCell id="205" value="topCovers: Covers" style="text;strokeColor=none;fillColor=none;align=left;verticalAlign=top;spacingLeft=4;spacingRight=4;overflow=hidden;rotatable=0;points=[[0,0.5],[1,0.5]];portConstraint=eastwest;" parent="154" vertex="1">
                    <mxGeometry y="225" width="200" height="25" as="geometry"/>
                </mxCell>
                <mxCell id="157" value="" style="swimlane;fontStyle=0;childLayout=stackLayout;horizontal=1;startSize=0;horizontalStack=0;resizeParent=1;resizeParentMax=0;resizeLast=0;collapsible=1;marginBottom=0;" parent="153" vertex="1">
                    <mxGeometry y="270" width="200" height="230" as="geometry">
                        <mxRectangle y="20" width="40" height="26" as="alternateBounds"/>
                    </mxGeometry>
                </mxCell>
                <mxCell id="232" value="+ onRefLinkClicked" style="text;strokeColor=none;fillColor=none;align=left;verticalAlign=top;spacingLeft=4;spacingRight=4;overflow=hidden;rotatable=0;points=[[0,0.5],[1,0.5]];portConstraint=eastwest;" parent="157" vertex="1">
                    <mxGeometry width="200" height="25" as="geometry"/>
                </mxCell>
                <mxCell id="158" value="+ onCombinationGetClicked" style="text;strokeColor=none;fillColor=none;align=left;verticalAlign=top;spacingLeft=4;spacingRight=4;overflow=hidden;rotatable=0;points=[[0,0.5],[1,0.5]];portConstraint=eastwest;" parent="157" vertex="1">
                    <mxGeometry y="25" width="200" height="25" as="geometry"/>
                </mxCell>
                <mxCell id="159" value="+ onCombinationListenClicked" style="text;strokeColor=none;fillColor=none;align=left;verticalAlign=top;spacingLeft=4;spacingRight=4;overflow=hidden;rotatable=0;points=[[0,0.5],[1,0.5]];portConstraint=eastwest;" parent="157" vertex="1">
                    <mxGeometry y="50" width="200" height="25" as="geometry"/>
                </mxCell>
                <mxCell id="234" value="+ onRecordClicked" style="text;strokeColor=none;fillColor=none;align=left;verticalAlign=top;spacingLeft=4;spacingRight=4;overflow=hidden;rotatable=0;points=[[0,0.5],[1,0.5]];portConstraint=eastwest;" parent="157" vertex="1">
                    <mxGeometry y="75" width="200" height="25" as="geometry"/>
                </mxCell>
                <mxCell id="235" value="+ onListenClicked" style="text;strokeColor=none;fillColor=none;align=left;verticalAlign=top;spacingLeft=4;spacingRight=4;overflow=hidden;rotatable=0;points=[[0,0.5],[1,0.5]];portConstraint=eastwest;" parent="157" vertex="1">
                    <mxGeometry y="100" width="200" height="25" as="geometry"/>
                </mxCell>
                <mxCell id="160" value="+ onCoverSelected" style="text;strokeColor=none;fillColor=none;align=left;verticalAlign=top;spacingLeft=4;spacingRight=4;overflow=hidden;rotatable=0;points=[[0,0.5],[1,0.5]];portConstraint=eastwest;" parent="157" vertex="1">
                    <mxGeometry y="125" width="200" height="25" as="geometry"/>
                </mxCell>
                <mxCell id="161" value="+ onCoverAddClicked" style="text;strokeColor=none;fillColor=none;align=left;verticalAlign=top;spacingLeft=4;spacingRight=4;overflow=hidden;rotatable=0;points=[[0,0.5],[1,0.5]];portConstraint=eastwest;" parent="157" vertex="1">
                    <mxGeometry y="150" width="200" height="25" as="geometry"/>
                </mxCell>
                <mxCell id="231" value="+ onCoverGetClicked" style="text;strokeColor=none;fillColor=none;align=left;verticalAlign=top;spacingLeft=4;spacingRight=4;overflow=hidden;rotatable=0;points=[[0,0.5],[1,0.5]];portConstraint=eastwest;" parent="157" vertex="1">
                    <mxGeometry y="175" width="200" height="25" as="geometry"/>
                </mxCell>
                <mxCell id="236" value="+ onCoverTitleClicked" style="text;strokeColor=none;fillColor=none;align=left;verticalAlign=top;spacingLeft=4;spacingRight=4;overflow=hidden;rotatable=0;points=[[0,0.5],[1,0.5]];portConstraint=eastwest;" parent="157" vertex="1">
                    <mxGeometry y="200" width="200" height="30" as="geometry"/>
                </mxCell>
                <mxCell id="237" value="CoverPage" style="swimlane;startSize=20;" parent="1" vertex="1">
                    <mxGeometry x="-560" y="400" width="200" height="395" as="geometry">
                        <mxRectangle x="-800" y="120" width="130" height="23" as="alternateBounds"/>
                    </mxGeometry>
                </mxCell>
                <mxCell id="238" value="" style="swimlane;fontStyle=0;childLayout=stackLayout;horizontal=1;startSize=0;horizontalStack=0;resizeParent=1;resizeParentMax=0;resizeLast=0;collapsible=1;marginBottom=0;" parent="237" vertex="1">
                    <mxGeometry y="20" width="200" height="300" as="geometry">
                        <mxRectangle y="20" width="40" height="26" as="alternateBounds"/>
                    </mxGeometry>
                </mxCell>
                <mxCell id="239" value="category: text" style="text;strokeColor=none;fillColor=none;align=left;verticalAlign=top;spacingLeft=4;spacingRight=4;overflow=hidden;rotatable=0;points=[[0,0.5],[1,0.5]];portConstraint=eastwest;" parent="238" vertex="1">
                    <mxGeometry width="200" height="25" as="geometry"/>
                </mxCell>
                <mxCell id="240" value="songTitle: text" style="text;strokeColor=none;fillColor=none;align=left;verticalAlign=top;spacingLeft=4;spacingRight=4;overflow=hidden;rotatable=0;points=[[0,0.5],[1,0.5]];portConstraint=eastwest;" parent="238" vertex="1">
                    <mxGeometry y="25" width="200" height="25" as="geometry"/>
                </mxCell>
                <mxCell id="241" value="songSinger: text" style="text;strokeColor=none;fillColor=none;align=left;verticalAlign=top;spacingLeft=4;spacingRight=4;overflow=hidden;rotatable=0;points=[[0,0.5],[1,0.5]];portConstraint=eastwest;" parent="238" vertex="1">
                    <mxGeometry y="50" width="200" height="25" as="geometry"/>
                </mxCell>
                <mxCell id="242" value="thumbnail: img" style="text;strokeColor=none;fillColor=none;align=left;verticalAlign=top;spacingLeft=4;spacingRight=4;overflow=hidden;rotatable=0;points=[[0,0.5],[1,0.5]];portConstraint=eastwest;" parent="238" vertex="1">
                    <mxGeometry y="75" width="200" height="25" as="geometry"/>
                </mxCell>
                <mxCell id="243" value="title: text" style="text;strokeColor=none;fillColor=none;align=left;verticalAlign=top;spacingLeft=4;spacingRight=4;overflow=hidden;rotatable=0;points=[[0,0.5],[1,0.5]];portConstraint=eastwest;" parent="238" vertex="1">
                    <mxGeometry y="100" width="200" height="25" as="geometry"/>
                </mxCell>
                <mxCell id="244" value="author: text" style="text;strokeColor=none;fillColor=none;align=left;verticalAlign=top;spacingLeft=4;spacingRight=4;overflow=hidden;rotatable=0;points=[[0,0.5],[1,0.5]];portConstraint=eastwest;" parent="238" vertex="1">
                    <mxGeometry y="125" width="200" height="25" as="geometry"/>
                </mxCell>
                <mxCell id="245" value="listen: button" style="text;strokeColor=none;fillColor=none;align=left;verticalAlign=top;spacingLeft=4;spacingRight=4;overflow=hidden;rotatable=0;points=[[0,0.5],[1,0.5]];portConstraint=eastwest;" parent="238" vertex="1">
                    <mxGeometry y="150" width="200" height="25" as="geometry"/>
                </mxCell>
                <mxCell id="246" value="coverPlayer: SimplePlayer" style="text;strokeColor=none;fillColor=none;align=left;verticalAlign=top;spacingLeft=4;spacingRight=4;overflow=hidden;rotatable=0;points=[[0,0.5],[1,0.5]];portConstraint=eastwest;" parent="238" vertex="1">
                    <mxGeometry y="175" width="200" height="25" as="geometry"/>
                </mxCell>
                <mxCell id="247" value="description: text" style="text;strokeColor=none;fillColor=none;align=left;verticalAlign=top;spacingLeft=4;spacingRight=4;overflow=hidden;rotatable=0;points=[[0,0.5],[1,0.5]];portConstraint=eastwest;" parent="238" vertex="1">
                    <mxGeometry y="200" width="200" height="25" as="geometry"/>
                </mxCell>
                <mxCell id="248" value="tags: list&lt;text&gt;" style="text;strokeColor=none;fillColor=none;align=left;verticalAlign=top;spacingLeft=4;spacingRight=4;overflow=hidden;rotatable=0;points=[[0,0.5],[1,0.5]];portConstraint=eastwest;" parent="238" vertex="1">
                    <mxGeometry y="225" width="200" height="25" as="geometry"/>
                </mxCell>
                <mxCell id="259" value="edit: button" style="text;strokeColor=none;fillColor=none;align=left;verticalAlign=top;spacingLeft=4;spacingRight=4;overflow=hidden;rotatable=0;points=[[0,0.5],[1,0.5]];portConstraint=eastwest;" parent="238" vertex="1">
                    <mxGeometry y="250" width="200" height="25" as="geometry"/>
                </mxCell>
                <mxCell id="260" value="delete: button" style="text;strokeColor=none;fillColor=none;align=left;verticalAlign=top;spacingLeft=4;spacingRight=4;overflow=hidden;rotatable=0;points=[[0,0.5],[1,0.5]];portConstraint=eastwest;" parent="238" vertex="1">
                    <mxGeometry y="275" width="200" height="25" as="geometry"/>
                </mxCell>
                <mxCell id="249" value="" style="swimlane;fontStyle=0;childLayout=stackLayout;horizontal=1;startSize=0;horizontalStack=0;resizeParent=1;resizeParentMax=0;resizeLast=0;collapsible=1;marginBottom=0;" parent="237" vertex="1">
                    <mxGeometry y="320" width="200" height="75" as="geometry">
                        <mxRectangle y="20" width="40" height="26" as="alternateBounds"/>
                    </mxGeometry>
                </mxCell>
                <mxCell id="250" value="+ onListenClicked" style="text;strokeColor=none;fillColor=none;align=left;verticalAlign=top;spacingLeft=4;spacingRight=4;overflow=hidden;rotatable=0;points=[[0,0.5],[1,0.5]];portConstraint=eastwest;" parent="249" vertex="1">
                    <mxGeometry width="200" height="25" as="geometry"/>
                </mxCell>
                <mxCell id="252" value="+ onEditClicked" style="text;strokeColor=none;fillColor=none;align=left;verticalAlign=top;spacingLeft=4;spacingRight=4;overflow=hidden;rotatable=0;points=[[0,0.5],[1,0.5]];portConstraint=eastwest;" parent="249" vertex="1">
                    <mxGeometry y="25" width="200" height="25" as="geometry"/>
                </mxCell>
                <mxCell id="253" value="+ onDeleteClicked" style="text;strokeColor=none;fillColor=none;align=left;verticalAlign=top;spacingLeft=4;spacingRight=4;overflow=hidden;rotatable=0;points=[[0,0.5],[1,0.5]];portConstraint=eastwest;" parent="249" vertex="1">
                    <mxGeometry y="50" width="200" height="25" as="geometry"/>
                </mxCell>
                <mxCell id="275" style="edgeStyle=orthogonalEdgeStyle;rounded=0;orthogonalLoop=1;jettySize=auto;html=1;entryX=0;entryY=0.028;entryDx=0;entryDy=0;entryPerimeter=0;" parent="1" source="236" target="237" edge="1">
                    <mxGeometry relative="1" as="geometry"/>
                </mxCell>
                <mxCell id="276" value="CreateCoverRecordPage" style="swimlane;startSize=20;" parent="1" vertex="1">
                    <mxGeometry x="-1040" y="960" width="200" height="245" as="geometry">
                        <mxRectangle x="-800" y="120" width="130" height="23" as="alternateBounds"/>
                    </mxGeometry>
                </mxCell>
                <mxCell id="277" value="" style="swimlane;fontStyle=0;childLayout=stackLayout;horizontal=1;startSize=0;horizontalStack=0;resizeParent=1;resizeParentMax=0;resizeLast=0;collapsible=1;marginBottom=0;" parent="276" vertex="1">
                    <mxGeometry y="20" width="200" height="125" as="geometry">
                        <mxRectangle y="20" width="40" height="26" as="alternateBounds"/>
                    </mxGeometry>
                </mxCell>
                <mxCell id="278" value="refPlayer: SimplePlayer" style="text;strokeColor=none;fillColor=none;align=left;verticalAlign=top;spacingLeft=4;spacingRight=4;overflow=hidden;rotatable=0;points=[[0,0.5],[1,0.5]];portConstraint=eastwest;" parent="277" vertex="1">
                    <mxGeometry width="200" height="25" as="geometry"/>
                </mxCell>
                <mxCell id="279" value="upload: div" style="text;strokeColor=none;fillColor=none;align=left;verticalAlign=top;spacingLeft=4;spacingRight=4;overflow=hidden;rotatable=0;points=[[0,0.5],[1,0.5]];portConstraint=eastwest;" parent="277" vertex="1">
                    <mxGeometry y="25" width="200" height="25" as="geometry"/>
                </mxCell>
                <mxCell id="280" value="record: button" style="text;strokeColor=none;fillColor=none;align=left;verticalAlign=top;spacingLeft=4;spacingRight=4;overflow=hidden;rotatable=0;points=[[0,0.5],[1,0.5]];portConstraint=eastwest;" parent="277" vertex="1">
                    <mxGeometry y="50" width="200" height="25" as="geometry"/>
                </mxCell>
                <mxCell id="409" value="cancel: button" style="text;strokeColor=none;fillColor=none;align=left;verticalAlign=top;spacingLeft=4;spacingRight=4;overflow=hidden;rotatable=0;points=[[0,0.5],[1,0.5]];portConstraint=eastwest;" parent="277" vertex="1">
                    <mxGeometry y="75" width="200" height="25" as="geometry"/>
                </mxCell>
                <mxCell id="281" value="next: button" style="text;strokeColor=none;fillColor=none;align=left;verticalAlign=top;spacingLeft=4;spacingRight=4;overflow=hidden;rotatable=0;points=[[0,0.5],[1,0.5]];portConstraint=eastwest;" parent="277" vertex="1">
                    <mxGeometry y="100" width="200" height="25" as="geometry"/>
                </mxCell>
                <mxCell id="290" value="" style="swimlane;fontStyle=0;childLayout=stackLayout;horizontal=1;startSize=0;horizontalStack=0;resizeParent=1;resizeParentMax=0;resizeLast=0;collapsible=1;marginBottom=0;" parent="276" vertex="1">
                    <mxGeometry y="145" width="200" height="100" as="geometry">
                        <mxRectangle y="20" width="40" height="26" as="alternateBounds"/>
                    </mxGeometry>
                </mxCell>
                <mxCell id="291" value="+ onFileDropped" style="text;strokeColor=none;fillColor=none;align=left;verticalAlign=top;spacingLeft=4;spacingRight=4;overflow=hidden;rotatable=0;points=[[0,0.5],[1,0.5]];portConstraint=eastwest;" parent="290" vertex="1">
                    <mxGeometry width="200" height="25" as="geometry"/>
                </mxCell>
                <mxCell id="292" value="+ onRecordClicked" style="text;strokeColor=none;fillColor=none;align=left;verticalAlign=top;spacingLeft=4;spacingRight=4;overflow=hidden;rotatable=0;points=[[0,0.5],[1,0.5]];portConstraint=eastwest;" parent="290" vertex="1">
                    <mxGeometry y="25" width="200" height="25" as="geometry"/>
                </mxCell>
                <mxCell id="293" value="+ onCancelClicked" style="text;strokeColor=none;fillColor=none;align=left;verticalAlign=top;spacingLeft=4;spacingRight=4;overflow=hidden;rotatable=0;points=[[0,0.5],[1,0.5]];portConstraint=eastwest;" parent="290" vertex="1">
                    <mxGeometry y="50" width="200" height="25" as="geometry"/>
                </mxCell>
                <mxCell id="411" value="+ onNextClicked" style="text;strokeColor=none;fillColor=none;align=left;verticalAlign=top;spacingLeft=4;spacingRight=4;overflow=hidden;rotatable=0;points=[[0,0.5],[1,0.5]];portConstraint=eastwest;" parent="290" vertex="1">
                    <mxGeometry y="75" width="200" height="25" as="geometry"/>
                </mxCell>
                <mxCell id="295" value="CreateCoverPreviewPage" style="swimlane;startSize=20;" parent="1" vertex="1">
                    <mxGeometry x="-790" y="960" width="190" height="245" as="geometry">
                        <mxRectangle x="-800" y="120" width="130" height="23" as="alternateBounds"/>
                    </mxGeometry>
                </mxCell>
                <mxCell id="296" value="" style="swimlane;fontStyle=0;childLayout=stackLayout;horizontal=1;startSize=0;horizontalStack=0;resizeParent=1;resizeParentMax=0;resizeLast=0;collapsible=1;marginBottom=0;" parent="295" vertex="1">
                    <mxGeometry y="20" width="190" height="225" as="geometry">
                        <mxRectangle y="20" width="40" height="26" as="alternateBounds"/>
                    </mxGeometry>
                </mxCell>
                <mxCell id="297" value="refPlayer: SimplePlayer" style="text;strokeColor=none;fillColor=none;align=left;verticalAlign=top;spacingLeft=4;spacingRight=4;overflow=hidden;rotatable=0;points=[[0,0.5],[1,0.5]];portConstraint=eastwest;" parent="296" vertex="1">
                    <mxGeometry width="190" height="25" as="geometry"/>
                </mxCell>
                <mxCell id="298" value="preview: SimplePlayer" style="text;strokeColor=none;fillColor=none;align=left;verticalAlign=top;spacingLeft=4;spacingRight=4;overflow=hidden;rotatable=0;points=[[0,0.5],[1,0.5]];portConstraint=eastwest;" parent="296" vertex="1">
                    <mxGeometry y="25" width="190" height="25" as="geometry"/>
                </mxCell>
                <mxCell id="299" value="record: button" style="text;strokeColor=none;fillColor=none;align=left;verticalAlign=top;spacingLeft=4;spacingRight=4;overflow=hidden;rotatable=0;points=[[0,0.5],[1,0.5]];portConstraint=eastwest;" parent="296" vertex="1">
                    <mxGeometry y="50" width="190" height="25" as="geometry"/>
                </mxCell>
                <mxCell id="412" value="prev: button" style="text;strokeColor=none;fillColor=none;align=left;verticalAlign=top;spacingLeft=4;spacingRight=4;overflow=hidden;rotatable=0;points=[[0,0.5],[1,0.5]];portConstraint=eastwest;" parent="296" vertex="1">
                    <mxGeometry y="75" width="190" height="25" as="geometry"/>
                </mxCell>
                <mxCell id="300" value="next: button" style="text;strokeColor=none;fillColor=none;align=left;verticalAlign=top;spacingLeft=4;spacingRight=4;overflow=hidden;rotatable=0;points=[[0,0.5],[1,0.5]];portConstraint=eastwest;" parent="296" vertex="1">
                    <mxGeometry y="100" width="190" height="25" as="geometry"/>
                </mxCell>
                <mxCell id="301" value="" style="swimlane;fontStyle=0;childLayout=stackLayout;horizontal=1;startSize=0;horizontalStack=0;resizeParent=1;resizeParentMax=0;resizeLast=0;collapsible=1;marginBottom=0;" parent="296" vertex="1">
                    <mxGeometry y="125" width="190" height="100" as="geometry">
                        <mxRectangle y="20" width="40" height="26" as="alternateBounds"/>
                    </mxGeometry>
                </mxCell>
                <mxCell id="302" value="+ onFileDropped" style="text;strokeColor=none;fillColor=none;align=left;verticalAlign=top;spacingLeft=4;spacingRight=4;overflow=hidden;rotatable=0;points=[[0,0.5],[1,0.5]];portConstraint=eastwest;" parent="301" vertex="1">
                    <mxGeometry width="190" height="25" as="geometry"/>
                </mxCell>
                <mxCell id="303" value="+ onRecordClicked" style="text;strokeColor=none;fillColor=none;align=left;verticalAlign=top;spacingLeft=4;spacingRight=4;overflow=hidden;rotatable=0;points=[[0,0.5],[1,0.5]];portConstraint=eastwest;" parent="301" vertex="1">
                    <mxGeometry y="25" width="190" height="25" as="geometry"/>
                </mxCell>
                <mxCell id="304" value="+ onPrevClicked" style="text;strokeColor=none;fillColor=none;align=left;verticalAlign=top;spacingLeft=4;spacingRight=4;overflow=hidden;rotatable=0;points=[[0,0.5],[1,0.5]];portConstraint=eastwest;" parent="301" vertex="1">
                    <mxGeometry y="50" width="190" height="25" as="geometry"/>
                </mxCell>
                <mxCell id="414" value="+ onNextClicked" style="text;strokeColor=none;fillColor=none;align=left;verticalAlign=top;spacingLeft=4;spacingRight=4;overflow=hidden;rotatable=0;points=[[0,0.5],[1,0.5]];portConstraint=eastwest;" parent="301" vertex="1">
                    <mxGeometry y="75" width="190" height="25" as="geometry"/>
                </mxCell>
                <mxCell id="305" value="CreateCoverInfoPage" style="swimlane;startSize=20;" parent="1" vertex="1">
                    <mxGeometry x="-550" y="960" width="190" height="245" as="geometry">
                        <mxRectangle x="-800" y="120" width="130" height="23" as="alternateBounds"/>
                    </mxGeometry>
                </mxCell>
                <mxCell id="306" value="" style="swimlane;fontStyle=0;childLayout=stackLayout;horizontal=1;startSize=0;horizontalStack=0;resizeParent=1;resizeParentMax=0;resizeLast=0;collapsible=1;marginBottom=0;" parent="305" vertex="1">
                    <mxGeometry y="20" width="190" height="225" as="geometry">
                        <mxRectangle y="20" width="40" height="26" as="alternateBounds"/>
                    </mxGeometry>
                </mxCell>
                <mxCell id="307" value="title: input" style="text;strokeColor=none;fillColor=none;align=left;verticalAlign=top;spacingLeft=4;spacingRight=4;overflow=hidden;rotatable=0;points=[[0,0.5],[1,0.5]];portConstraint=eastwest;" parent="306" vertex="1">
                    <mxGeometry width="190" height="25" as="geometry"/>
                </mxCell>
                <mxCell id="308" value="category: input" style="text;strokeColor=none;fillColor=none;align=left;verticalAlign=top;spacingLeft=4;spacingRight=4;overflow=hidden;rotatable=0;points=[[0,0.5],[1,0.5]];portConstraint=eastwest;" parent="306" vertex="1">
                    <mxGeometry y="25" width="190" height="25" as="geometry"/>
                </mxCell>
                <mxCell id="309" value="instrument: input" style="text;strokeColor=none;fillColor=none;align=left;verticalAlign=top;spacingLeft=4;spacingRight=4;overflow=hidden;rotatable=0;points=[[0,0.5],[1,0.5]];portConstraint=eastwest;" parent="306" vertex="1">
                    <mxGeometry y="50" width="190" height="25" as="geometry"/>
                </mxCell>
                <mxCell id="310" value="tags: text" style="text;strokeColor=none;fillColor=none;align=left;verticalAlign=top;spacingLeft=4;spacingRight=4;overflow=hidden;rotatable=0;points=[[0,0.5],[1,0.5]];portConstraint=eastwest;" parent="306" vertex="1">
                    <mxGeometry y="75" width="190" height="25" as="geometry"/>
                </mxCell>
                <mxCell id="315" value="description: text" style="text;strokeColor=none;fillColor=none;align=left;verticalAlign=top;spacingLeft=4;spacingRight=4;overflow=hidden;rotatable=0;points=[[0,0.5],[1,0.5]];portConstraint=eastwest;" parent="306" vertex="1">
                    <mxGeometry y="100" width="190" height="25" as="geometry"/>
                </mxCell>
                <mxCell id="415" value="prev: button" style="text;strokeColor=none;fillColor=none;align=left;verticalAlign=top;spacingLeft=4;spacingRight=4;overflow=hidden;rotatable=0;points=[[0,0.5],[1,0.5]];portConstraint=eastwest;" parent="306" vertex="1">
                    <mxGeometry y="125" width="190" height="25" as="geometry"/>
                </mxCell>
                <mxCell id="326" value="next: button" style="text;strokeColor=none;fillColor=none;align=left;verticalAlign=top;spacingLeft=4;spacingRight=4;overflow=hidden;rotatable=0;points=[[0,0.5],[1,0.5]];portConstraint=eastwest;" parent="306" vertex="1">
                    <mxGeometry y="150" width="190" height="25" as="geometry"/>
                </mxCell>
                <mxCell id="311" value="" style="swimlane;fontStyle=0;childLayout=stackLayout;horizontal=1;startSize=0;horizontalStack=0;resizeParent=1;resizeParentMax=0;resizeLast=0;collapsible=1;marginBottom=0;" parent="306" vertex="1">
                    <mxGeometry y="175" width="190" height="50" as="geometry">
                        <mxRectangle y="20" width="40" height="26" as="alternateBounds"/>
                    </mxGeometry>
                </mxCell>
                <mxCell id="314" value="+ onPrevClicked" style="text;strokeColor=none;fillColor=none;align=left;verticalAlign=top;spacingLeft=4;spacingRight=4;overflow=hidden;rotatable=0;points=[[0,0.5],[1,0.5]];portConstraint=eastwest;" parent="311" vertex="1">
                    <mxGeometry width="190" height="25" as="geometry"/>
                </mxCell>
                <mxCell id="416" value="+ onNextClicked" style="text;strokeColor=none;fillColor=none;align=left;verticalAlign=top;spacingLeft=4;spacingRight=4;overflow=hidden;rotatable=0;points=[[0,0.5],[1,0.5]];portConstraint=eastwest;" parent="311" vertex="1">
                    <mxGeometry y="25" width="190" height="25" as="geometry"/>
                </mxCell>
                <mxCell id="316" value="CreateSongPage" style="swimlane;startSize=20;" parent="1" vertex="1">
                    <mxGeometry x="-1040" y="670" width="200" height="20" as="geometry">
                        <mxRectangle x="-800" y="120" width="130" height="23" as="alternateBounds"/>
                    </mxGeometry>
                </mxCell>
                <mxCell id="317" value="" style="swimlane;fontStyle=0;childLayout=stackLayout;horizontal=1;startSize=0;horizontalStack=0;resizeParent=1;resizeParentMax=0;resizeLast=0;collapsible=1;marginBottom=0;" parent="316" vertex="1">
                    <mxGeometry y="20" width="200" height="175" as="geometry">
                        <mxRectangle y="20" width="40" height="26" as="alternateBounds"/>
                    </mxGeometry>
                </mxCell>
                <mxCell id="318" value="title: input" style="text;strokeColor=none;fillColor=none;align=left;verticalAlign=top;spacingLeft=4;spacingRight=4;overflow=hidden;rotatable=0;points=[[0,0.5],[1,0.5]];portConstraint=eastwest;" parent="317" vertex="1">
                    <mxGeometry width="200" height="25" as="geometry"/>
                </mxCell>
                <mxCell id="319" value="singer: input" style="text;strokeColor=none;fillColor=none;align=left;verticalAlign=top;spacingLeft=4;spacingRight=4;overflow=hidden;rotatable=0;points=[[0,0.5],[1,0.5]];portConstraint=eastwest;" parent="317" vertex="1">
                    <mxGeometry y="25" width="200" height="25" as="geometry"/>
                </mxCell>
                <mxCell id="320" value="category: input" style="text;strokeColor=none;fillColor=none;align=left;verticalAlign=top;spacingLeft=4;spacingRight=4;overflow=hidden;rotatable=0;points=[[0,0.5],[1,0.5]];portConstraint=eastwest;" parent="317" vertex="1">
                    <mxGeometry y="50" width="200" height="25" as="geometry"/>
                </mxCell>
                <mxCell id="321" value="refLink: text" style="text;strokeColor=none;fillColor=none;align=left;verticalAlign=top;spacingLeft=4;spacingRight=4;overflow=hidden;rotatable=0;points=[[0,0.5],[1,0.5]];portConstraint=eastwest;" parent="317" vertex="1">
                    <mxGeometry y="75" width="200" height="25" as="geometry"/>
                </mxCell>
                <mxCell id="322" value="description: text" style="text;strokeColor=none;fillColor=none;align=left;verticalAlign=top;spacingLeft=4;spacingRight=4;overflow=hidden;rotatable=0;points=[[0,0.5],[1,0.5]];portConstraint=eastwest;" parent="317" vertex="1">
                    <mxGeometry y="100" width="200" height="25" as="geometry"/>
                </mxCell>
                <mxCell id="325" value="confirm: button" style="text;strokeColor=none;fillColor=none;align=left;verticalAlign=top;spacingLeft=4;spacingRight=4;overflow=hidden;rotatable=0;points=[[0,0.5],[1,0.5]];portConstraint=eastwest;" parent="317" vertex="1">
                    <mxGeometry y="125" width="200" height="25" as="geometry"/>
                </mxCell>
                <mxCell id="323" value="" style="swimlane;fontStyle=0;childLayout=stackLayout;horizontal=1;startSize=0;horizontalStack=0;resizeParent=1;resizeParentMax=0;resizeLast=0;collapsible=1;marginBottom=0;" parent="317" vertex="1">
                    <mxGeometry y="150" width="200" height="25" as="geometry">
                        <mxRectangle y="20" width="40" height="26" as="alternateBounds"/>
                    </mxGeometry>
                </mxCell>
                <mxCell id="324" value="+ onConfirmClicked" style="text;strokeColor=none;fillColor=none;align=left;verticalAlign=top;spacingLeft=4;spacingRight=4;overflow=hidden;rotatable=0;points=[[0,0.5],[1,0.5]];portConstraint=eastwest;" parent="323" vertex="1">
                    <mxGeometry width="200" height="25" as="geometry"/>
                </mxCell>
                <mxCell id="327" style="edgeStyle=orthogonalEdgeStyle;rounded=0;orthogonalLoop=1;jettySize=auto;html=1;entryX=-0.008;entryY=0.057;entryDx=0;entryDy=0;entryPerimeter=0;exitX=1;exitY=0.5;exitDx=0;exitDy=0;" parent="1" source="411" target="295" edge="1">
                    <mxGeometry relative="1" as="geometry">
                        <Array as="points">
                            <mxPoint x="-810" y="1193"/>
                            <mxPoint x="-810" y="974"/>
                        </Array>
                    </mxGeometry>
                </mxCell>
                <mxCell id="328" style="edgeStyle=orthogonalEdgeStyle;rounded=0;orthogonalLoop=1;jettySize=auto;html=1;entryX=0;entryY=0.059;entryDx=0;entryDy=0;entryPerimeter=0;exitX=1;exitY=0.5;exitDx=0;exitDy=0;" parent="1" source="414" target="305" edge="1">
                    <mxGeometry relative="1" as="geometry">
                        <Array as="points">
                            <mxPoint x="-570" y="1193"/>
                            <mxPoint x="-570" y="975"/>
                        </Array>
                    </mxGeometry>
                </mxCell>
                <mxCell id="329" style="edgeStyle=orthogonalEdgeStyle;rounded=0;orthogonalLoop=1;jettySize=auto;html=1;entryX=0;entryY=0.5;entryDx=0;entryDy=0;" parent="1" source="99" target="316" edge="1">
                    <mxGeometry relative="1" as="geometry">
                        <Array as="points">
                            <mxPoint x="-1070" y="558"/>
                            <mxPoint x="-1070" y="680"/>
                        </Array>
                    </mxGeometry>
                </mxCell>
                <mxCell id="330" style="edgeStyle=orthogonalEdgeStyle;rounded=0;orthogonalLoop=1;jettySize=auto;html=1;" parent="1" source="170" target="276" edge="1">
                    <mxGeometry relative="1" as="geometry">
                        <Array as="points">
                            <mxPoint x="-1060" y="608"/>
                            <mxPoint x="-1060" y="972"/>
                        </Array>
                    </mxGeometry>
                </mxCell>
                <mxCell id="331" value="ProfilePage" style="swimlane;startSize=20;" parent="1" vertex="1">
                    <mxGeometry x="-310" y="330" width="200" height="470" as="geometry">
                        <mxRectangle x="-800" y="120" width="130" height="23" as="alternateBounds"/>
                    </mxGeometry>
                </mxCell>
                <mxCell id="332" value="" style="swimlane;fontStyle=0;childLayout=stackLayout;horizontal=1;startSize=0;horizontalStack=0;resizeParent=1;resizeParentMax=0;resizeLast=0;collapsible=1;marginBottom=0;" parent="331" vertex="1">
                    <mxGeometry y="20" width="200" height="450" as="geometry">
                        <mxRectangle y="20" width="40" height="26" as="alternateBounds"/>
                    </mxGeometry>
                </mxCell>
                <mxCell id="333" value="photo: img" style="text;strokeColor=none;fillColor=none;align=left;verticalAlign=top;spacingLeft=4;spacingRight=4;overflow=hidden;rotatable=0;points=[[0,0.5],[1,0.5]];portConstraint=eastwest;" parent="332" vertex="1">
                    <mxGeometry width="200" height="25" as="geometry"/>
                </mxCell>
                <mxCell id="499" value="photoEdit: button" style="text;strokeColor=none;fillColor=none;align=left;verticalAlign=top;spacingLeft=4;spacingRight=4;overflow=hidden;rotatable=0;points=[[0,0.5],[1,0.5]];portConstraint=eastwest;" parent="332" vertex="1">
                    <mxGeometry y="25" width="200" height="25" as="geometry"/>
                </mxCell>
                <mxCell id="334" value="name: text" style="text;strokeColor=none;fillColor=none;align=left;verticalAlign=top;spacingLeft=4;spacingRight=4;overflow=hidden;rotatable=0;points=[[0,0.5],[1,0.5]];portConstraint=eastwest;" parent="332" vertex="1">
                    <mxGeometry y="50" width="200" height="25" as="geometry"/>
                </mxCell>
                <mxCell id="335" value="nameEdit: button" style="text;strokeColor=none;fillColor=none;align=left;verticalAlign=top;spacingLeft=4;spacingRight=4;overflow=hidden;rotatable=0;points=[[0,0.5],[1,0.5]];portConstraint=eastwest;" parent="332" vertex="1">
                    <mxGeometry y="75" width="200" height="25" as="geometry"/>
                </mxCell>
                <mxCell id="510" value="nameInput: input" style="text;strokeColor=none;fillColor=none;align=left;verticalAlign=top;spacingLeft=4;spacingRight=4;overflow=hidden;rotatable=0;points=[[0,0.5],[1,0.5]];portConstraint=eastwest;" parent="332" vertex="1">
                    <mxGeometry y="100" width="200" height="25" as="geometry"/>
                </mxCell>
                <mxCell id="511" value="nameSubmit: button" style="text;strokeColor=none;fillColor=none;align=left;verticalAlign=top;spacingLeft=4;spacingRight=4;overflow=hidden;rotatable=0;points=[[0,0.5],[1,0.5]];portConstraint=eastwest;" parent="332" vertex="1">
                    <mxGeometry y="125" width="200" height="25" as="geometry"/>
                </mxCell>
                <mxCell id="336" value="follower: text" style="text;strokeColor=none;fillColor=none;align=left;verticalAlign=top;spacingLeft=4;spacingRight=4;overflow=hidden;rotatable=0;points=[[0,0.5],[1,0.5]];portConstraint=eastwest;" parent="332" vertex="1">
                    <mxGeometry y="150" width="200" height="25" as="geometry"/>
                </mxCell>
                <mxCell id="337" value="following: text" style="text;strokeColor=none;fillColor=none;align=left;verticalAlign=top;spacingLeft=4;spacingRight=4;overflow=hidden;rotatable=0;points=[[0,0.5],[1,0.5]];portConstraint=eastwest;" parent="332" vertex="1">
                    <mxGeometry y="175" width="200" height="25" as="geometry"/>
                </mxCell>
                <mxCell id="338" value="covers: Covers" style="text;strokeColor=none;fillColor=none;align=left;verticalAlign=top;spacingLeft=4;spacingRight=4;overflow=hidden;rotatable=0;points=[[0,0.5],[1,0.5]];portConstraint=eastwest;" parent="332" vertex="1">
                    <mxGeometry y="200" width="200" height="25" as="geometry"/>
                </mxCell>
                <mxCell id="339" value="bio: text" style="text;strokeColor=none;fillColor=none;align=left;verticalAlign=top;spacingLeft=4;spacingRight=4;overflow=hidden;rotatable=0;points=[[0,0.5],[1,0.5]];portConstraint=eastwest;" parent="332" vertex="1">
                    <mxGeometry y="225" width="200" height="25" as="geometry"/>
                </mxCell>
                <mxCell id="508" value="bioEdit: button" style="text;strokeColor=none;fillColor=none;align=left;verticalAlign=top;spacingLeft=4;spacingRight=4;overflow=hidden;rotatable=0;points=[[0,0.5],[1,0.5]];portConstraint=eastwest;" parent="332" vertex="1">
                    <mxGeometry y="250" width="200" height="25" as="geometry"/>
                </mxCell>
                <mxCell id="512" value="bioInput: input" style="text;strokeColor=none;fillColor=none;align=left;verticalAlign=top;spacingLeft=4;spacingRight=4;overflow=hidden;rotatable=0;points=[[0,0.5],[1,0.5]];portConstraint=eastwest;" parent="332" vertex="1">
                    <mxGeometry y="275" width="200" height="25" as="geometry"/>
                </mxCell>
                <mxCell id="513" value="bioSubmit: button" style="text;strokeColor=none;fillColor=none;align=left;verticalAlign=top;spacingLeft=4;spacingRight=4;overflow=hidden;rotatable=0;points=[[0,0.5],[1,0.5]];portConstraint=eastwest;" parent="332" vertex="1">
                    <mxGeometry y="300" width="200" height="25" as="geometry"/>
                </mxCell>
                <mxCell id="345" value="" style="swimlane;fontStyle=0;childLayout=stackLayout;horizontal=1;startSize=0;horizontalStack=0;resizeParent=1;resizeParentMax=0;resizeLast=0;collapsible=1;marginBottom=0;" parent="332" vertex="1">
                    <mxGeometry y="325" width="200" height="125" as="geometry">
                        <mxRectangle y="20" width="40" height="26" as="alternateBounds"/>
                    </mxGeometry>
                </mxCell>
                <mxCell id="347" value="+ onCoverTitleClicked" style="text;strokeColor=none;fillColor=none;align=left;verticalAlign=top;spacingLeft=4;spacingRight=4;overflow=hidden;rotatable=0;points=[[0,0.5],[1,0.5]];portConstraint=eastwest;" parent="345" vertex="1">
                    <mxGeometry width="200" height="25" as="geometry"/>
                </mxCell>
                <mxCell id="346" value="+ onNameEditClicked" style="text;strokeColor=none;fillColor=none;align=left;verticalAlign=top;spacingLeft=4;spacingRight=4;overflow=hidden;rotatable=0;points=[[0,0.5],[1,0.5]];portConstraint=eastwest;" parent="345" vertex="1">
                    <mxGeometry y="25" width="200" height="25" as="geometry"/>
                </mxCell>
                <mxCell id="514" value="+ onNameSubmitClicked" style="text;strokeColor=none;fillColor=none;align=left;verticalAlign=top;spacingLeft=4;spacingRight=4;overflow=hidden;rotatable=0;points=[[0,0.5],[1,0.5]];portConstraint=eastwest;" parent="345" vertex="1">
                    <mxGeometry y="50" width="200" height="25" as="geometry"/>
                </mxCell>
                <mxCell id="515" value="+ onBioEditClicked" style="text;strokeColor=none;fillColor=none;align=left;verticalAlign=top;spacingLeft=4;spacingRight=4;overflow=hidden;rotatable=0;points=[[0,0.5],[1,0.5]];portConstraint=eastwest;" parent="345" vertex="1">
                    <mxGeometry y="75" width="200" height="25" as="geometry"/>
                </mxCell>
                <mxCell id="516" value="+ onBioSubmitClicked" style="text;strokeColor=none;fillColor=none;align=left;verticalAlign=top;spacingLeft=4;spacingRight=4;overflow=hidden;rotatable=0;points=[[0,0.5],[1,0.5]];portConstraint=eastwest;" parent="345" vertex="1">
                    <mxGeometry y="100" width="200" height="25" as="geometry"/>
                </mxCell>
                <mxCell id="364" value="Header" style="swimlane;startSize=20;" parent="1" vertex="1">
                    <mxGeometry x="-1040" y="120" width="160" height="20" as="geometry">
                        <mxRectangle x="-800" y="120" width="130" height="23" as="alternateBounds"/>
                    </mxGeometry>
                </mxCell>
                <mxCell id="365" value="" style="swimlane;fontStyle=0;childLayout=stackLayout;horizontal=1;startSize=0;horizontalStack=0;resizeParent=1;resizeParentMax=0;resizeLast=0;collapsible=1;marginBottom=0;" parent="364" vertex="1">
                    <mxGeometry y="20" width="160" height="125" as="geometry">
                        <mxRectangle y="20" width="40" height="26" as="alternateBounds"/>
                    </mxGeometry>
                </mxCell>
                <mxCell id="366" value="search: Search" style="text;strokeColor=none;fillColor=none;align=left;verticalAlign=top;spacingLeft=4;spacingRight=4;overflow=hidden;rotatable=0;points=[[0,0.5],[1,0.5]];portConstraint=eastwest;" parent="365" vertex="1">
                    <mxGeometry width="160" height="25" as="geometry"/>
                </mxCell>
                <mxCell id="367" value="signin: button" style="text;strokeColor=none;fillColor=none;align=left;verticalAlign=top;spacingLeft=4;spacingRight=4;overflow=hidden;rotatable=0;points=[[0,0.5],[1,0.5]];portConstraint=eastwest;" parent="365" vertex="1">
                    <mxGeometry y="25" width="160" height="25" as="geometry"/>
                </mxCell>
                <mxCell id="368" value="signup: button" style="text;strokeColor=none;fillColor=none;align=left;verticalAlign=top;spacingLeft=4;spacingRight=4;overflow=hidden;rotatable=0;points=[[0,0.5],[1,0.5]];portConstraint=eastwest;" parent="365" vertex="1">
                    <mxGeometry y="50" width="160" height="25" as="geometry"/>
                </mxCell>
                <mxCell id="445" value="signout: button" style="text;strokeColor=none;fillColor=none;align=left;verticalAlign=top;spacingLeft=4;spacingRight=4;overflow=hidden;rotatable=0;points=[[0,0.5],[1,0.5]];portConstraint=eastwest;" parent="365" vertex="1">
                    <mxGeometry y="75" width="160" height="25" as="geometry"/>
                </mxCell>
                <mxCell id="518" value="profile: button" style="text;strokeColor=none;fillColor=none;align=left;verticalAlign=top;spacingLeft=4;spacingRight=4;overflow=hidden;rotatable=0;points=[[0,0.5],[1,0.5]];portConstraint=eastwest;" parent="365" vertex="1">
                    <mxGeometry y="100" width="160" height="25" as="geometry"/>
                </mxCell>
                <mxCell id="370" value="" style="swimlane;fontStyle=0;childLayout=stackLayout;horizontal=1;startSize=0;horizontalStack=0;resizeParent=1;resizeParentMax=0;resizeLast=0;collapsible=1;marginBottom=0;" parent="364" vertex="1">
                    <mxGeometry y="145" width="160" height="90" as="geometry">
                        <mxRectangle y="20" width="40" height="26" as="alternateBounds"/>
                    </mxGeometry>
                </mxCell>
                <mxCell id="371" value="+ onSearchClicked" style="text;strokeColor=none;fillColor=none;align=left;verticalAlign=top;spacingLeft=4;spacingRight=4;overflow=hidden;rotatable=0;points=[[0,0.5],[1,0.5]];portConstraint=eastwest;" parent="370" vertex="1">
                    <mxGeometry width="160" height="30" as="geometry"/>
                </mxCell>
                <mxCell id="447" value="+ onSignOutClicked" style="text;strokeColor=none;fillColor=none;align=left;verticalAlign=top;spacingLeft=4;spacingRight=4;overflow=hidden;rotatable=0;points=[[0,0.5],[1,0.5]];portConstraint=eastwest;" parent="370" vertex="1">
                    <mxGeometry y="30" width="160" height="30" as="geometry"/>
                </mxCell>
                <mxCell id="519" value="+ onProfileClicked" style="text;strokeColor=none;fillColor=none;align=left;verticalAlign=top;spacingLeft=4;spacingRight=4;overflow=hidden;rotatable=0;points=[[0,0.5],[1,0.5]];portConstraint=eastwest;" parent="370" vertex="1">
                    <mxGeometry y="60" width="160" height="30" as="geometry"/>
                </mxCell>
                <mxCell id="378" style="edgeStyle=orthogonalEdgeStyle;rounded=0;orthogonalLoop=1;jettySize=auto;html=1;" parent="1" source="64" edge="1">
                    <mxGeometry relative="1" as="geometry">
                        <Array as="points">
                            <mxPoint x="-670" y="178"/>
                            <mxPoint x="-670" y="295"/>
                            <mxPoint x="-860" y="295"/>
                            <mxPoint x="-860" y="412"/>
                        </Array>
                        <mxPoint x="-799" y="412" as="targetPoint"/>
                    </mxGeometry>
                </mxCell>
                <mxCell id="379" style="edgeStyle=orthogonalEdgeStyle;rounded=0;orthogonalLoop=1;jettySize=auto;html=1;entryX=-0.015;entryY=0.135;entryDx=0;entryDy=0;entryPerimeter=0;" parent="1" source="367" target="103" edge="1">
                    <mxGeometry relative="1" as="geometry">
                        <Array as="points">
                            <mxPoint x="-850" y="178"/>
                            <mxPoint x="-850" y="260"/>
                            <mxPoint x="-660" y="260"/>
                            <mxPoint x="-660" y="133"/>
                        </Array>
                    </mxGeometry>
                </mxCell>
                <mxCell id="380" style="edgeStyle=orthogonalEdgeStyle;rounded=0;orthogonalLoop=1;jettySize=auto;html=1;entryX=-0.008;entryY=0.117;entryDx=0;entryDy=0;entryPerimeter=0;" parent="1" source="368" target="113" edge="1">
                    <mxGeometry relative="1" as="geometry">
                        <Array as="points">
                            <mxPoint x="-860" y="203"/>
                            <mxPoint x="-860" y="280"/>
                            <mxPoint x="-460" y="280"/>
                            <mxPoint x="-460" y="134"/>
                        </Array>
                    </mxGeometry>
                </mxCell>
                <mxCell id="381" style="edgeStyle=orthogonalEdgeStyle;rounded=0;orthogonalLoop=1;jettySize=auto;html=1;entryX=-0.015;entryY=0.062;entryDx=0;entryDy=0;entryPerimeter=0;exitX=0;exitY=0.5;exitDx=0;exitDy=0;" parent="1" source="371" target="69" edge="1">
                    <mxGeometry relative="1" as="geometry">
                        <Array as="points">
                            <mxPoint x="-1060" y="280"/>
                            <mxPoint x="-1060" y="411"/>
                        </Array>
                    </mxGeometry>
                </mxCell>
                <mxCell id="520" style="edgeStyle=orthogonalEdgeStyle;rounded=0;sketch=0;orthogonalLoop=1;jettySize=auto;html=1;exitX=0;exitY=0.5;exitDx=0;exitDy=0;entryX=1;entryY=0.041;entryDx=0;entryDy=0;entryPerimeter=0;" parent="1" source="304" target="276" edge="1">
                    <mxGeometry relative="1" as="geometry">
                        <Array as="points">
                            <mxPoint x="-820" y="1167"/>
                            <mxPoint x="-820" y="970"/>
                        </Array>
                    </mxGeometry>
                </mxCell>
                <mxCell id="521" style="edgeStyle=orthogonalEdgeStyle;rounded=0;sketch=0;orthogonalLoop=1;jettySize=auto;html=1;exitX=0;exitY=0.5;exitDx=0;exitDy=0;entryX=1;entryY=0.041;entryDx=0;entryDy=0;entryPerimeter=0;" parent="1" source="314" target="295" edge="1">
                    <mxGeometry relative="1" as="geometry">
                        <Array as="points">
                            <mxPoint x="-580" y="1168"/>
                            <mxPoint x="-580" y="970"/>
                        </Array>
                    </mxGeometry>
                </mxCell>
                <mxCell id="522" style="edgeStyle=orthogonalEdgeStyle;rounded=0;sketch=0;orthogonalLoop=1;jettySize=auto;html=1;exitX=1;exitY=0.5;exitDx=0;exitDy=0;" parent="1" source="324" edge="1">
                    <mxGeometry relative="1" as="geometry">
                        <mxPoint x="-800" y="412" as="targetPoint"/>
                        <Array as="points">
                            <mxPoint x="-820" y="853"/>
                            <mxPoint x="-820" y="412"/>
                        </Array>
                    </mxGeometry>
                </mxCell>
                <mxCell id="523" style="edgeStyle=orthogonalEdgeStyle;rounded=0;sketch=0;orthogonalLoop=1;jettySize=auto;html=1;exitX=1;exitY=0.5;exitDx=0;exitDy=0;entryX=0.004;entryY=0.023;entryDx=0;entryDy=0;entryPerimeter=0;" parent="1" source="519" target="331" edge="1">
                    <mxGeometry relative="1" as="geometry"/>
                </mxCell>
                <mxCell id="525" style="edgeStyle=orthogonalEdgeStyle;rounded=0;sketch=0;orthogonalLoop=1;jettySize=auto;html=1;exitX=1;exitY=0.5;exitDx=0;exitDy=0;" parent="1" source="416" edge="1">
                    <mxGeometry relative="1" as="geometry">
                        <mxPoint x="-360" y="410" as="targetPoint"/>
                        <Array as="points">
                            <mxPoint x="-340" y="1193"/>
                            <mxPoint x="-340" y="410"/>
                            <mxPoint x="-360" y="410"/>
                        </Array>
                    </mxGeometry>
                </mxCell>
            </root>
        </mxGraphModel>
    </diagram>
</mxfile>